<svg xmlns="http://www.w3.org/2000/svg" version="1.1" xmlns:xlink="http://www.w3.org/1999/xlink" xmlns:svgjs="http://svgjs.com/svgjs" viewBox="0 0 640 400" xmlns:xlink="http://www.w3.org/1999/xlink" xmlns:svgjs="http://svgjs.dev/svgjs"><g viewBox="0 0 640 400"><g><g><g><svg viewBox="0 0 640 400" data-background-color="#ffffff" preserveAspectRatio="xMidYMid meet" height="400" width="640" xmlns="http://www.w3.org/2000/svg" xmlns:xlink="http://www.w3.org/1999/xlink"><rect width="640" height="400" x="0" y="0" opacity="1" fill="#ffffff" data-fill-palette-color="background" id="background"></rect><g id="tight-bounds" transform="matrix(1,0,0,1,122.24000000000001,145.22871085591166)"><svg viewBox="0 0 395.52 109.54257828817668" height="109.54257828817668" width="395.52"><g><svg viewBox="0 0 395.52 109.54257828817668" height="109.54257828817668" width="395.52"><g transform="matrix(1,0,0,1,0,71.87126828047316)"><svg viewBox="0 0 395.52 37.67131000770353" height="37.67131000770353" width="395.52"><g><svg viewBox="0 0 395.52 37.67131000770353" height="37.67131000770353" width="395.52"><g><svg viewBox="0 0 395.52 37.67131000770353" height="37.67131000770353" width="395.52"><g transform="matrix(1,0,0,1,0,0)"><svg width="395.52" viewBox="-1.2162806987762451 -34.527198791503906 490.797607421875 46.746028900146484" height="37.67131000770353" data-palette-color="#3d3839"><path d="M17.8 11.788l-4.992 0.431-2.761-31.991-10.88 0.939-0.383-4.444 26.75-2.309 0.384 4.444-10.88 0.939zM37.99 10.109l-4.994 0.399-2.91-36.454 4.994-0.399zM57.212 9.018v0c-2.174 0.156-4.091 0.043-5.749-0.339-1.651-0.376-3.065-1.177-4.242-2.403-1.184-1.225-2.13-3.049-2.839-5.47-0.702-2.423-1.193-5.596-1.475-9.519v0c-0.265-3.697-0.212-6.769 0.161-9.215 0.372-2.453 1.062-4.394 2.068-5.823 1.007-1.429 2.316-2.469 3.927-3.119 1.611-0.644 3.508-1.044 5.689-1.201v0c1.224-0.088 2.492-0.112 3.805-0.072 1.312 0.033 2.578 0.116 3.797 0.249 1.219 0.126 2.317 0.288 3.293 0.485v0l0.27 3.761c-0.599-0.057-1.415-0.106-2.447-0.145-1.033-0.046-2.197-0.063-3.492-0.051-1.29 0.006-2.629 0.058-4.019 0.158v0c-1.649 0.118-3.035 0.408-4.159 0.87-1.129 0.469-2.02 1.231-2.673 2.287-0.659 1.057-1.086 2.514-1.28 4.373-0.201 1.852-0.198 4.232 0.011 7.138v0c0.21 2.932 0.539 5.322 0.985 7.168 0.446 1.839 1.055 3.24 1.825 4.2 0.764 0.954 1.738 1.58 2.922 1.875 1.178 0.296 2.624 0.383 4.34 0.261v0c2.48-0.178 4.507-0.39 6.08-0.637 1.573-0.247 2.85-0.469 3.832-0.666v0l0.273 3.81c-0.975 0.297-2.05 0.588-3.225 0.873-1.169 0.284-2.402 0.523-3.699 0.717-1.296 0.193-2.623 0.339-3.979 0.435zM78.78 7.29l-5 0.304-2.217-36.503 5-0.303 0.978 16.09 5.899-0.358 8.286-16.653 5.3-0.322-9.491 18.92 11.907 17.57-5.35 0.325-10.381-15.379-5.899 0.359zM111.406 5.653v0c-0.826 0.041-1.705 0.012-2.637-0.087-0.933-0.107-1.831-0.379-2.695-0.816-0.87-0.437-1.592-1.138-2.168-2.104-0.582-0.959-0.916-2.284-1.001-3.975v0l-1.091-21.702c-0.073-1.458 0.088-2.691 0.485-3.699 0.396-1.014 0.943-1.83 1.64-2.446 0.703-0.616 1.502-1.07 2.394-1.362 0.9-0.292 1.796-0.461 2.688-0.505v0c2.145-0.081 4.121-0.14 5.929-0.178 1.8-0.044 3.477-0.071 5.032-0.083 1.561-0.012 3.053-0.02 4.475-0.024v0l0.206 4.114-14.072 0.708c-1.225 0.062-2.168 0.423-2.829 1.083-0.667 0.668-0.967 1.677-0.899 3.029v0l0.381 7.58 15.785-0.493 0.194 3.866-15.752 1.142 0.376 7.48c0.057 1.125 0.292 1.958 0.706 2.498 0.408 0.547 0.92 0.905 1.536 1.074 0.622 0.162 1.28 0.226 1.972 0.191v0l13.982-0.702 0.207 4.115c-1.513 0.176-3.11 0.35-4.79 0.521-1.687 0.165-3.379 0.313-5.074 0.445-1.702 0.139-3.362 0.249-4.98 0.33zM145.45 3.968l-5.006 0.193-1.243-32.085-10.912 0.422-0.172-4.456 26.83-1.04 0.172 4.457-10.912 0.423zM185.888 3.047v0c-2.179 0.052-4.088-0.152-5.726-0.613-1.631-0.455-3.006-1.322-4.124-2.603-1.124-1.28-1.982-3.147-2.574-5.6-0.585-2.453-0.925-5.646-1.019-9.578v0c-0.089-3.706 0.112-6.771 0.6-9.197 0.489-2.432 1.27-4.338 2.345-5.718 1.074-1.379 2.431-2.355 4.071-2.928 1.64-0.566 3.553-0.875 5.739-0.927v0c1.226-0.029 2.494 0.007 3.804 0.109 1.309 0.095 2.57 0.239 3.781 0.43 1.211 0.184 2.3 0.399 3.267 0.642v0l0.09 3.769c-0.596-0.086-1.408-0.173-2.437-0.262-1.029-0.095-2.191-0.168-3.487-0.217-1.288-0.056-2.629-0.067-4.022-0.034v0c-1.653 0.039-3.051 0.263-4.195 0.671-1.15 0.414-2.077 1.133-2.779 2.157-0.709 1.024-1.205 2.459-1.488 4.307-0.289 1.841-0.399 4.217-0.329 7.129v0c0.07 2.939 0.284 5.341 0.642 7.207 0.358 1.859 0.899 3.286 1.623 4.283 0.717 0.99 1.66 1.661 2.828 2.013 1.162 0.352 2.603 0.508 4.323 0.467v0c2.486-0.059 4.52-0.175 6.103-0.346 1.583-0.171 2.87-0.332 3.86-0.483v0l0.091 3.819c-0.988 0.25-2.076 0.49-3.264 0.719-1.182 0.228-2.424 0.408-3.728 0.539-1.304 0.131-2.636 0.213-3.995 0.245zM210.159 2.511v0c-0.827 0.011-1.704-0.05-2.633-0.185-0.929-0.141-1.816-0.445-2.663-0.914-0.853-0.468-1.55-1.196-2.089-2.181-0.547-0.979-0.832-2.316-0.855-4.009v0l-0.295-21.728c-0.02-1.46 0.187-2.686 0.62-3.679 0.433-0.999 1.009-1.794 1.727-2.384 0.725-0.59 1.54-1.014 2.443-1.273 0.91-0.259 1.811-0.395 2.705-0.407v0c2.147-0.003 4.124 0.011 5.931 0.04 1.8 0.022 3.478 0.056 5.032 0.101 1.561 0.045 3.052 0.092 4.472 0.14v0l0.056 4.119-14.088 0.192c-1.227 0.017-2.182 0.343-2.867 0.979-0.691 0.643-1.028 1.641-1.01 2.994v0l0.103 7.589 15.793 0.085 0.053 3.87-15.784 0.565 0.102 7.489c0.015 1.127 0.22 1.967 0.614 2.522 0.388 0.561 0.886 0.938 1.496 1.13 0.616 0.185 1.27 0.273 1.963 0.263v0l13.999-0.19 0.056 4.119c-1.518 0.121-3.12 0.236-4.806 0.346-1.692 0.103-3.388 0.189-5.087 0.259-1.706 0.077-3.369 0.126-4.988 0.148zM236.702 2.088l-5.01 0.011-0.076-36.57 4.07-0.009 17.968 27.993-0.058-28.03 4.97-0.01 0.075 36.57-4.02 0.008-17.978-28.003zM278.266 2.257l-5.01-0.053 0.338-32.108-10.92-0.115 0.047-4.459 26.849 0.282-0.047 4.46-10.92-0.115zM298.474 2.565l-5.009-0.104 0.756-36.562 14.637 0.303c1.26 0.026 2.473 0.198 3.64 0.515 1.167 0.324 2.205 0.892 3.116 1.705 0.91 0.812 1.613 1.944 2.11 3.394 0.503 1.451 0.731 3.333 0.683 5.646v0c-0.039 1.886-0.272 3.455-0.697 4.706-0.419 1.245-0.96 2.234-1.622 2.967-0.662 0.733-1.383 1.282-2.164 1.646-0.788 0.364-1.563 0.634-2.327 0.812v0l6.973 15.387-5.059-0.104-6.448-14.677c-0.493-0.01-1.096-0.033-1.809-0.067-0.713-0.028-1.456-0.05-2.229-0.066-0.78-0.016-1.539-0.049-2.279-0.097-0.746-0.049-1.402-0.079-1.968-0.091v0zM299.138-29.538l-0.28 13.547 8.838 0.183c0.793 0.016 1.522-0.059 2.185-0.225 0.664-0.173 1.258-0.511 1.782-1.014 0.524-0.496 0.945-1.197 1.263-2.104 0.319-0.9 0.493-2.064 0.523-3.49v0c0.029-1.386-0.098-2.513-0.381-3.378-0.282-0.866-0.682-1.538-1.198-2.016-0.524-0.471-1.114-0.807-1.77-1.006-0.656-0.194-1.364-0.298-2.124-0.314v0zM326.743 3.26l-5.157-0.17 13.408-36.148 6.347 0.209 10.998 36.953-5.207-0.172-2.913-9.681-13.982-0.461zM337.969-28.598l-6.394 17.919 11.553 0.381zM378.818 5.264l-13.837-0.605c-1.552-0.068-2.903-0.367-4.055-0.898-1.151-0.531-2.015-1.379-2.591-2.545-0.583-1.167-0.833-2.709-0.749-4.627v0l1.259-28.803 5.005 0.219-1.226 28.053c-0.046 1.059 0.101 1.886 0.442 2.482 0.341 0.595 0.804 1.006 1.388 1.232 0.584 0.219 1.226 0.344 1.925 0.374v0l12.638 0.552zM401.647 6.527l-5.001-0.297 2.166-36.506 5.002 0.297-0.973 16.391 16.9 1.003 0.973-16.391 4.951 0.294-2.166 36.505-4.951-0.293 0.928-15.653-16.9-1.003zM443.699 9.581v0c-2.008-0.145-3.84-0.461-5.496-0.947-1.663-0.481-3.071-1.204-4.225-2.17-1.161-0.959-2.009-2.224-2.544-3.793-0.529-1.562-0.71-3.497-0.544-5.804v0l1.806-25.045 4.997 0.36-1.802 24.996c-0.136 1.882 0.098 3.366 0.702 4.452 0.597 1.086 1.531 1.898 2.802 2.437 1.271 0.539 2.814 0.875 4.629 1.006v0c1.849 0.133 3.441 0.024 4.776-0.328 1.335-0.352 2.38-1.022 3.133-2.01 0.753-0.988 1.197-2.424 1.333-4.305v0l1.802-24.995 4.997 0.36-1.806 25.045c-0.166 2.307-0.633 4.195-1.401 5.664-0.775 1.475-1.795 2.604-3.061 3.389-1.267 0.791-2.754 1.305-4.463 1.543-1.709 0.244-3.587 0.293-5.635 0.145zM478.101 12.01l-14.101-1.185 3.064-36.442 13.552 1.14c3.262 0.274 5.627 1.269 7.095 2.985 1.468 1.716 2.072 4.121 1.812 7.217v0c-0.128 1.521-0.461 2.815-0.999 3.88-0.538 1.065-1.225 1.921-2.062 2.566-0.837 0.645-1.741 1.058-2.713 1.237v0c0.674 0.257 1.363 0.616 2.067 1.077 0.711 0.455 1.359 1.064 1.943 1.829 0.585 0.765 1.029 1.682 1.335 2.752 0.311 1.07 0.407 2.316 0.287 3.737v0c-0.213 2.538-0.804 4.505-1.77 5.902-0.96 1.391-2.244 2.337-3.851 2.838-1.6 0.494-3.487 0.65-5.659 0.467zM470.402-5.516l-1.035 12.306 8.958 0.753c1.183 0.099 2.219-0.011 3.109-0.33 0.89-0.327 1.624-0.931 2.2-1.812 0.569-0.882 0.924-2.163 1.065-3.845v0c0.102-1.216-0.072-2.284-0.523-3.205-0.452-0.914-1.096-1.641-1.934-2.179-0.832-0.532-1.792-0.843-2.882-0.935v0zM471.682-20.753l-0.956 11.38 8.709 0.732c1.415 0.119 2.605-0.306 3.569-1.275 0.957-0.963 1.523-2.284 1.698-3.962v0c0.247-2.14-0.073-3.669-0.959-4.586-0.886-0.924-2.069-1.448-3.551-1.573v0z" opacity="1" transform="matrix(1,0,0,1,0,0)" fill="#3d3839" class="undefined-text-0" data-fill-palette-color="primary" id="text-0"></path></svg></g></svg></g></svg></g></svg></g><g transform="matrix(1,0,0,1,167.28391020376785,0)"><svg viewBox="0 0 60.95217959246431 60.95217959246431" height="60.95217959246431" width="60.95217959246431"><g><svg xmlns="http://www.w3.org/2000/svg" viewBox="1 1 62 62" style="enable-background:new 0 0 64 64" xml:space="preserve" x="0" y="0" height="60.95217959246431" width="60.95217959246431" class="icon-icon-0" data-fill-palette-color="accent" id="icon-0"><path d="M40.755 38.09L36 36.307v-0.847a5.996 5.996 0 0 0 1.675-2.528A3.998 3.998 0 0 0 41 29v-4c0-4.624-3.507-8.441-8-8.941v-5.16A5.009 5.009 0 0 0 37 6c0-2.757-2.243-5-5-5s-5 2.243-5 5a5.01 5.01 0 0 0 4 4.899v5.16c-4.493 0.5-8 4.317-8 8.941v4a3.998 3.998 0 0 0 3.325 3.932A6.008 6.008 0 0 0 28 35.46v0.847l-4.755 1.784A5.023 5.023 0 0 0 20 42.773V48h11v5.101A5.009 5.009 0 0 0 27 58c0 2.757 2.243 5 5 5s5-2.243 5-5a5.01 5.01 0 0 0-4-4.899V48h11v-5.228a5.023 5.023 0 0 0-3.245-4.682zM35 58c0 1.654-1.346 3-3 3s-3-1.346-3-3 1.346-3 3-3 3 1.346 3 3z m-3-23c-2.206 0-4-1.794-4-4v-4.073a7.57 7.57 0 0 0 3.219-1.204l0.781-0.521 0.781 0.521A7.582 7.582 0 0 0 36 26.927V31c0 2.206-1.794 4-4 4z m6-4.294v-3.428c0.595 0.347 1 0.985 1 1.722a1.96 1.96 0 0 1-1 1.706zM29 6c0-1.654 1.346-3 3-3s3 1.346 3 3-1.346 3-3 3-3-1.346-3-3z m3 12c3.86 0 7 3.14 7 7v0.556A3.949 3.949 0 0 0 37 25a5.592 5.592 0 0 1-3.109-0.941L32 22.799l-1.891 1.26A5.592 5.592 0 0 1 27 25c-0.732 0-1.409 0.212-2 0.556V25c0-3.86 3.14-7 7-7z m-7 11c0-0.737 0.405-1.375 1-1.722v3.444c-0.595-0.347-1-0.985-1-1.722z m7 8c0.702 0 1.373-0.128 2-0.35V37c0 1.103-0.897 2-2 2s-2-0.897-2-2v-0.35c0.627 0.222 1.298 0.35 2 0.35z m10 9h-2v-4h-2v4H26v-4h-2v4h-2v-3.228c0-1.244 0.782-2.372 1.947-2.809l4.304-1.614C28.807 39.89 30.27 41 32 41s3.193-1.11 3.749-2.651l4.304 1.614A3.013 3.013 0 0 1 42 42.772V46zM58 27a5.01 5.01 0 0 0-4.899 4H47v2h6.101A5.009 5.009 0 0 0 58 37c2.757 0 5-2.243 5-5s-2.243-5-5-5z m0 8c-1.654 0-3-1.346-3-3s1.346-3 3-3 3 1.346 3 3-1.346 3-3 3zM10.899 33H17v-2h-6.101A5.009 5.009 0 0 0 6 27c-2.757 0-5 2.243-5 5s2.243 5 5 5a5.01 5.01 0 0 0 4.899-4zM3 32c0-1.654 1.346-3 3-3s3 1.346 3 3-1.346 3-3 3-3-1.346-3-3zM44.707 20.707l5.54-5.54A4.969 4.969 0 0 0 53 16c2.757 0 5-2.243 5-5s-2.243-5-5-5-5 2.243-5 5c0 1.017 0.309 1.962 0.833 2.753l-5.54 5.54 1.414 1.414zM53 8c1.654 0 3 1.346 3 3s-1.346 3-3 3-3-1.346-3-3 1.346-3 3-3zM11 16a4.969 4.969 0 0 0 2.753-0.833l5.54 5.54 1.414-1.414-5.54-5.54A4.969 4.969 0 0 0 16 11c0-2.757-2.243-5-5-5s-5 2.243-5 5 2.243 5 5 5z m0-8c1.654 0 3 1.346 3 3s-1.346 3-3 3-3-1.346-3-3 1.346-3 3-3zM16.293 46.293l-2.54 2.54A4.969 4.969 0 0 0 11 48c-2.757 0-5 2.243-5 5s2.243 5 5 5 5-2.243 5-5a4.969 4.969 0 0 0-0.833-2.753l2.54-2.54-1.414-1.414zM11 56c-1.654 0-3-1.346-3-3s1.346-3 3-3 3 1.346 3 3-1.346 3-3 3zM53 48a4.969 4.969 0 0 0-2.753 0.833l-2.54-2.54-1.414 1.414 2.54 2.54A4.969 4.969 0 0 0 48 53c0 2.757 2.243 5 5 5s5-2.243 5-5-2.243-5-5-5z m0 8c-1.654 0-3-1.346-3-3s1.346-3 3-3 3 1.346 3 3-1.346 3-3 3zM19 31h2v2h-2zM43 31h2v2h-2z" fill="#ffc604" data-fill-palette-color="accent"></path></svg></g></svg></g><g></g></svg></g></svg><rect width="395.52" height="109.54257828817668" fill="none" stroke="none" visibility="hidden"></rect></g></svg></g></g></g></g><rect width="407.5200776599704" height="49.67130533854163" x="117.24022274925596" y="212.10013253348217" rx="2.5" ry="2.5" class="logo-element-hover-target"></rect><rect width="72.9521484375" height="72.95217750186012" x="284.52392578125" y="140.22870744977683" rx="2.5" ry="2.5" class="logo-element-hover-target"></rect><g viewBox="0 0 640 400"><g><g><g><svg viewBox="0 0 640 400" data-background-color="#ffffff" preserveAspectRatio="xMidYMid meet" height="400" width="640" xmlns="http://www.w3.org/2000/svg" xmlns:xlink="http://www.w3.org/1999/xlink"><rect width="640" height="400" x="0" y="0" opacity="1" fill="#ffffff" data-fill-palette-color="background" id="background"></rect><g id="tight-bounds" transform="matrix(1,0,0,1,122.24000000000001,145.22871085591166)"><svg viewBox="0 0 395.52 109.54257828817668" height="109.54257828817668" width="395.52"><g><svg viewBox="0 0 395.52 109.54257828817668" height="109.54257828817668" width="395.52"><g transform="matrix(1,0,0,1,0,71.87126828047316)"><svg viewBox="0 0 395.52 37.67131000770353" height="37.67131000770353" width="395.52"><g><svg viewBox="0 0 395.52 37.67131000770353" height="37.67131000770353" width="395.52"><g><svg viewBox="0 0 395.52 37.67131000770353" height="37.67131000770353" width="395.52"><g transform="matrix(1,0,0,1,0,0)"><svg width="395.52" viewBox="-1.2162806987762451 -34.527198791503906 490.797607421875 46.746028900146484" height="37.67131000770353" data-palette-color="#3d3839"><path d="M17.8 11.788l-4.992 0.431-2.761-31.991-10.88 0.939-0.383-4.444 26.75-2.309 0.384 4.444-10.88 0.939zM37.99 10.109l-4.994 0.399-2.91-36.454 4.994-0.399zM57.212 9.018v0c-2.174 0.156-4.091 0.043-5.749-0.339-1.651-0.376-3.065-1.177-4.242-2.403-1.184-1.225-2.13-3.049-2.839-5.47-0.702-2.423-1.193-5.596-1.475-9.519v0c-0.265-3.697-0.212-6.769 0.161-9.215 0.372-2.453 1.062-4.394 2.068-5.823 1.007-1.429 2.316-2.469 3.927-3.119 1.611-0.644 3.508-1.044 5.689-1.201v0c1.224-0.088 2.492-0.112 3.805-0.072 1.312 0.033 2.578 0.116 3.797 0.249 1.219 0.126 2.317 0.288 3.293 0.485v0l0.27 3.761c-0.599-0.057-1.415-0.106-2.447-0.145-1.033-0.046-2.197-0.063-3.492-0.051-1.29 0.006-2.629 0.058-4.019 0.158v0c-1.649 0.118-3.035 0.408-4.159 0.87-1.129 0.469-2.02 1.231-2.673 2.287-0.659 1.057-1.086 2.514-1.28 4.373-0.201 1.852-0.198 4.232 0.011 7.138v0c0.21 2.932 0.539 5.322 0.985 7.168 0.446 1.839 1.055 3.24 1.825 4.2 0.764 0.954 1.738 1.58 2.922 1.875 1.178 0.296 2.624 0.383 4.34 0.261v0c2.48-0.178 4.507-0.39 6.08-0.637 1.573-0.247 2.85-0.469 3.832-0.666v0l0.273 3.81c-0.975 0.297-2.05 0.588-3.225 0.873-1.169 0.284-2.402 0.523-3.699 0.717-1.296 0.193-2.623 0.339-3.979 0.435zM78.78 7.29l-5 0.304-2.217-36.503 5-0.303 0.978 16.09 5.899-0.358 8.286-16.653 5.3-0.322-9.491 18.92 11.907 17.57-5.35 0.325-10.381-15.379-5.899 0.359zM111.406 5.653v0c-0.826 0.041-1.705 0.012-2.637-0.087-0.933-0.107-1.831-0.379-2.695-0.816-0.87-0.437-1.592-1.138-2.168-2.104-0.582-0.959-0.916-2.284-1.001-3.975v0l-1.091-21.702c-0.073-1.458 0.088-2.691 0.485-3.699 0.396-1.014 0.943-1.83 1.64-2.446 0.703-0.616 1.502-1.07 2.394-1.362 0.9-0.292 1.796-0.461 2.688-0.505v0c2.145-0.081 4.121-0.14 5.929-0.178 1.8-0.044 3.477-0.071 5.032-0.083 1.561-0.012 3.053-0.02 4.475-0.024v0l0.206 4.114-14.072 0.708c-1.225 0.062-2.168 0.423-2.829 1.083-0.667 0.668-0.967 1.677-0.899 3.029v0l0.381 7.58 15.785-0.493 0.194 3.866-15.752 1.142 0.376 7.48c0.057 1.125 0.292 1.958 0.706 2.498 0.408 0.547 0.92 0.905 1.536 1.074 0.622 0.162 1.28 0.226 1.972 0.191v0l13.982-0.702 0.207 4.115c-1.513 0.176-3.11 0.35-4.79 0.521-1.687 0.165-3.379 0.313-5.074 0.445-1.702 0.139-3.362 0.249-4.98 0.33zM145.45 3.968l-5.006 0.193-1.243-32.085-10.912 0.422-0.172-4.456 26.83-1.04 0.172 4.457-10.912 0.423zM185.888 3.047v0c-2.179 0.052-4.088-0.152-5.726-0.613-1.631-0.455-3.006-1.322-4.124-2.603-1.124-1.28-1.982-3.147-2.574-5.6-0.585-2.453-0.925-5.646-1.019-9.578v0c-0.089-3.706 0.112-6.771 0.6-9.197 0.489-2.432 1.27-4.338 2.345-5.718 1.074-1.379 2.431-2.355 4.071-2.928 1.64-0.566 3.553-0.875 5.739-0.927v0c1.226-0.029 2.494 0.007 3.804 0.109 1.309 0.095 2.57 0.239 3.781 0.43 1.211 0.184 2.3 0.399 3.267 0.642v0l0.09 3.769c-0.596-0.086-1.408-0.173-2.437-0.262-1.029-0.095-2.191-0.168-3.487-0.217-1.288-0.056-2.629-0.067-4.022-0.034v0c-1.653 0.039-3.051 0.263-4.195 0.671-1.15 0.414-2.077 1.133-2.779 2.157-0.709 1.024-1.205 2.459-1.488 4.307-0.289 1.841-0.399 4.217-0.329 7.129v0c0.07 2.939 0.284 5.341 0.642 7.207 0.358 1.859 0.899 3.286 1.623 4.283 0.717 0.99 1.66 1.661 2.828 2.013 1.162 0.352 2.603 0.508 4.323 0.467v0c2.486-0.059 4.52-0.175 6.103-0.346 1.583-0.171 2.87-0.332 3.86-0.483v0l0.091 3.819c-0.988 0.25-2.076 0.49-3.264 0.719-1.182 0.228-2.424 0.408-3.728 0.539-1.304 0.131-2.636 0.213-3.995 0.245zM210.159 2.511v0c-0.827 0.011-1.704-0.05-2.633-0.185-0.929-0.141-1.816-0.445-2.663-0.914-0.853-0.468-1.55-1.196-2.089-2.181-0.547-0.979-0.832-2.316-0.855-4.009v0l-0.295-21.728c-0.02-1.46 0.187-2.686 0.62-3.679 0.433-0.999 1.009-1.794 1.727-2.384 0.725-0.59 1.54-1.014 2.443-1.273 0.91-0.259 1.811-0.395 2.705-0.407v0c2.147-0.003 4.124 0.011 5.931 0.04 1.8 0.022 3.478 0.056 5.032 0.101 1.561 0.045 3.052 0.092 4.472 0.14v0l0.056 4.119-14.088 0.192c-1.227 0.017-2.182 0.343-2.867 0.979-0.691 0.643-1.028 1.641-1.01 2.994v0l0.103 7.589 15.793 0.085 0.053 3.87-15.784 0.565 0.102 7.489c0.015 1.127 0.22 1.967 0.614 2.522 0.388 0.561 0.886 0.938 1.496 1.13 0.616 0.185 1.27 0.273 1.963 0.263v0l13.999-0.19 0.056 4.119c-1.518 0.121-3.12 0.236-4.806 0.346-1.692 0.103-3.388 0.189-5.087 0.259-1.706 0.077-3.369 0.126-4.988 0.148zM236.702 2.088l-5.01 0.011-0.076-36.57 4.07-0.009 17.968 27.993-0.058-28.03 4.97-0.01 0.075 36.57-4.02 0.008-17.978-28.003zM278.266 2.257l-5.01-0.053 0.338-32.108-10.92-0.115 0.047-4.459 26.849 0.282-0.047 4.46-10.92-0.115zM298.474 2.565l-5.009-0.104 0.756-36.562 14.637 0.303c1.26 0.026 2.473 0.198 3.64 0.515 1.167 0.324 2.205 0.892 3.116 1.705 0.91 0.812 1.613 1.944 2.11 3.394 0.503 1.451 0.731 3.333 0.683 5.646v0c-0.039 1.886-0.272 3.455-0.697 4.706-0.419 1.245-0.96 2.234-1.622 2.967-0.662 0.733-1.383 1.282-2.164 1.646-0.788 0.364-1.563 0.634-2.327 0.812v0l6.973 15.387-5.059-0.104-6.448-14.677c-0.493-0.01-1.096-0.033-1.809-0.067-0.713-0.028-1.456-0.05-2.229-0.066-0.78-0.016-1.539-0.049-2.279-0.097-0.746-0.049-1.402-0.079-1.968-0.091v0zM299.138-29.538l-0.28 13.547 8.838 0.183c0.793 0.016 1.522-0.059 2.185-0.225 0.664-0.173 1.258-0.511 1.782-1.014 0.524-0.496 0.945-1.197 1.263-2.104 0.319-0.9 0.493-2.064 0.523-3.49v0c0.029-1.386-0.098-2.513-0.381-3.378-0.282-0.866-0.682-1.538-1.198-2.016-0.524-0.471-1.114-0.807-1.77-1.006-0.656-0.194-1.364-0.298-2.124-0.314v0zM326.743 3.26l-5.157-0.17 13.408-36.148 6.347 0.209 10.998 36.953-5.207-0.172-2.913-9.681-13.982-0.461zM337.969-28.598l-6.394 17.919 11.553 0.381zM378.818 5.264l-13.837-0.605c-1.552-0.068-2.903-0.367-4.055-0.898-1.151-0.531-2.015-1.379-2.591-2.545-0.583-1.167-0.833-2.709-0.749-4.627v0l1.259-28.803 5.005 0.219-1.226 28.053c-0.046 1.059 0.101 1.886 0.442 2.482 0.341 0.595 0.804 1.006 1.388 1.232 0.584 0.219 1.226 0.344 1.925 0.374v0l12.638 0.552zM401.647 6.527l-5.001-0.297 2.166-36.506 5.002 0.297-0.973 16.391 16.9 1.003 0.973-16.391 4.951 0.294-2.166 36.505-4.951-0.293 0.928-15.653-16.9-1.003zM443.699 9.581v0c-2.008-0.145-3.84-0.461-5.496-0.947-1.663-0.481-3.071-1.204-4.225-2.17-1.161-0.959-2.009-2.224-2.544-3.793-0.529-1.562-0.71-3.497-0.544-5.804v0l1.806-25.045 4.997 0.36-1.802 24.996c-0.136 1.882 0.098 3.366 0.702 4.452 0.597 1.086 1.531 1.898 2.802 2.437 1.271 0.539 2.814 0.875 4.629 1.006v0c1.849 0.133 3.441 0.024 4.776-0.328 1.335-0.352 2.38-1.022 3.133-2.01 0.753-0.988 1.197-2.424 1.333-4.305v0l1.802-24.995 4.997 0.36-1.806 25.045c-0.166 2.307-0.633 4.195-1.401 5.664-0.775 1.475-1.795 2.604-3.061 3.389-1.267 0.791-2.754 1.305-4.463 1.543-1.709 0.244-3.587 0.293-5.635 0.145zM478.101 12.01l-14.101-1.185 3.064-36.442 13.552 1.14c3.262 0.274 5.627 1.269 7.095 2.985 1.468 1.716 2.072 4.121 1.812 7.217v0c-0.128 1.521-0.461 2.815-0.999 3.88-0.538 1.065-1.225 1.921-2.062 2.566-0.837 0.645-1.741 1.058-2.713 1.237v0c0.674 0.257 1.363 0.616 2.067 1.077 0.711 0.455 1.359 1.064 1.943 1.829 0.585 0.765 1.029 1.682 1.335 2.752 0.311 1.07 0.407 2.316 0.287 3.737v0c-0.213 2.538-0.804 4.505-1.77 5.902-0.96 1.391-2.244 2.337-3.851 2.838-1.6 0.494-3.487 0.65-5.659 0.467zM470.402-5.516l-1.035 12.306 8.958 0.753c1.183 0.099 2.219-0.011 3.109-0.33 0.89-0.327 1.624-0.931 2.2-1.812 0.569-0.882 0.924-2.163 1.065-3.845v0c0.102-1.216-0.072-2.284-0.523-3.205-0.452-0.914-1.096-1.641-1.934-2.179-0.832-0.532-1.792-0.843-2.882-0.935v0zM471.682-20.753l-0.956 11.38 8.709 0.732c1.415 0.119 2.605-0.306 3.569-1.275 0.957-0.963 1.523-2.284 1.698-3.962v0c0.247-2.14-0.073-3.669-0.959-4.586-0.886-0.924-2.069-1.448-3.551-1.573v0z" opacity="1" transform="matrix(1,0,0,1,0,0)" fill="#3d3839" class="undefined-text-0" data-fill-palette-color="primary" id="text-0"></path></svg></g></svg></g></svg></g></svg></g><g transform="matrix(1,0,0,1,167.28391020376785,0)"><svg viewBox="0 0 60.95217959246431 60.95217959246431" height="60.95217959246431" width="60.95217959246431"><g><svg xmlns="http://www.w3.org/2000/svg" viewBox="1 1 62 62" style="enable-background:new 0 0 64 64" xml:space="preserve" x="0" y="0" height="60.95217959246431" width="60.95217959246431" class="icon-icon-0" data-fill-palette-color="accent" id="icon-0"><path d="M40.755 38.09L36 36.307v-0.847a5.996 5.996 0 0 0 1.675-2.528A3.998 3.998 0 0 0 41 29v-4c0-4.624-3.507-8.441-8-8.941v-5.16A5.009 5.009 0 0 0 37 6c0-2.757-2.243-5-5-5s-5 2.243-5 5a5.01 5.01 0 0 0 4 4.899v5.16c-4.493 0.5-8 4.317-8 8.941v4a3.998 3.998 0 0 0 3.325 3.932A6.008 6.008 0 0 0 28 35.46v0.847l-4.755 1.784A5.023 5.023 0 0 0 20 42.773V48h11v5.101A5.009 5.009 0 0 0 27 58c0 2.757 2.243 5 5 5s5-2.243 5-5a5.01 5.01 0 0 0-4-4.899V48h11v-5.228a5.023 5.023 0 0 0-3.245-4.682zM35 58c0 1.654-1.346 3-3 3s-3-1.346-3-3 1.346-3 3-3 3 1.346 3 3z m-3-23c-2.206 0-4-1.794-4-4v-4.073a7.57 7.57 0 0 0 3.219-1.204l0.781-0.521 0.781 0.521A7.582 7.582 0 0 0 36 26.927V31c0 2.206-1.794 4-4 4z m6-4.294v-3.428c0.595 0.347 1 0.985 1 1.722a1.96 1.96 0 0 1-1 1.706zM29 6c0-1.654 1.346-3 3-3s3 1.346 3 3-1.346 3-3 3-3-1.346-3-3z m3 12c3.86 0 7 3.14 7 7v0.556A3.949 3.949 0 0 0 37 25a5.592 5.592 0 0 1-3.109-0.941L32 22.799l-1.891 1.26A5.592 5.592 0 0 1 27 25c-0.732 0-1.409 0.212-2 0.556V25c0-3.86 3.14-7 7-7z m-7 11c0-0.737 0.405-1.375 1-1.722v3.444c-0.595-0.347-1-0.985-1-1.722z m7 8c0.702 0 1.373-0.128 2-0.35V37c0 1.103-0.897 2-2 2s-2-0.897-2-2v-0.35c0.627 0.222 1.298 0.35 2 0.35z m10 9h-2v-4h-2v4H26v-4h-2v4h-2v-3.228c0-1.244 0.782-2.372 1.947-2.809l4.304-1.614C28.807 39.89 30.27 41 32 41s3.193-1.11 3.749-2.651l4.304 1.614A3.013 3.013 0 0 1 42 42.772V46zM58 27a5.01 5.01 0 0 0-4.899 4H47v2h6.101A5.009 5.009 0 0 0 58 37c2.757 0 5-2.243 5-5s-2.243-5-5-5z m0 8c-1.654 0-3-1.346-3-3s1.346-3 3-3 3 1.346 3 3-1.346 3-3 3zM10.899 33H17v-2h-6.101A5.009 5.009 0 0 0 6 27c-2.757 0-5 2.243-5 5s2.243 5 5 5a5.01 5.01 0 0 0 4.899-4zM3 32c0-1.654 1.346-3 3-3s3 1.346 3 3-1.346 3-3 3-3-1.346-3-3zM44.707 20.707l5.54-5.54A4.969 4.969 0 0 0 53 16c2.757 0 5-2.243 5-5s-2.243-5-5-5-5 2.243-5 5c0 1.017 0.309 1.962 0.833 2.753l-5.54 5.54 1.414 1.414zM53 8c1.654 0 3 1.346 3 3s-1.346 3-3 3-3-1.346-3-3 1.346-3 3-3zM11 16a4.969 4.969 0 0 0 2.753-0.833l5.54 5.54 1.414-1.414-5.54-5.54A4.969 4.969 0 0 0 16 11c0-2.757-2.243-5-5-5s-5 2.243-5 5 2.243 5 5 5z m0-8c1.654 0 3 1.346 3 3s-1.346 3-3 3-3-1.346-3-3 1.346-3 3-3zM16.293 46.293l-2.54 2.54A4.969 4.969 0 0 0 11 48c-2.757 0-5 2.243-5 5s2.243 5 5 5 5-2.243 5-5a4.969 4.969 0 0 0-0.833-2.753l2.54-2.54-1.414-1.414zM11 56c-1.654 0-3-1.346-3-3s1.346-3 3-3 3 1.346 3 3-1.346 3-3 3zM53 48a4.969 4.969 0 0 0-2.753 0.833l-2.54-2.54-1.414 1.414 2.54 2.54A4.969 4.969 0 0 0 48 53c0 2.757 2.243 5 5 5s5-2.243 5-5-2.243-5-5-5z m0 8c-1.654 0-3-1.346-3-3s1.346-3 3-3 3 1.346 3 3-1.346 3-3 3zM19 31h2v2h-2zM43 31h2v2h-2z" fill="#ffc604" data-fill-palette-color="accent"></path></svg></g></svg></g><g></g></svg></g></svg><rect width="395.52" height="109.54257828817668" fill="none" stroke="none" visibility="hidden"></rect></g><defs></defs></svg></g></g></g></g><rect width="407.5200776599704" height="49.67130533854163" x="117.24022274925596" y="212.10013253348217" rx="2.5" ry="2.5" class="logo-element-hover-target"></rect><rect width="72.9521484375" height="72.95217750186012" x="284.52392578125" y="140.22870744977683" rx="2.5" ry="2.5" class="logo-element-hover-target"></rect></svg>